<svg xmlns="http://www.w3.org/2000/svg" id="Layer_1" viewBox="0 0 566.93 183.02">
  <defs>
    <style>
      .cls-1{fill:#434142;}
      .cls-2{fill:#719cd2;}
    </style>
  </defs>
  <path d="M477.87 132.34V59.08h12.18V88a24.57 24.57 0 0 1 6.78-5.15 18.37 18.37 0 0 1 8.5-1.9 17.74 17.74 0 0 1 7.91 1.73 17 17 0 0 1 6 5 23.34 23.34 0 0 1 3.82 7.81 36.87 36.87 0 0 1 1.33 10.31 38.43 38.43 0 0 1-1.51 11.2 25.71 25.71 0 0 1-4.36 8.6 19.53 19.53 0 0 1-15.7 7.52 18.63 18.63 0 0 1-4.32-.47 15.16 15.16 0 0 1-3.5-1.35 14.7 14.7 0 0 1-3-2 25.47 25.47 0 0 1-2.59-2.69l-.54 3.4a2.67 2.67 0 0 1-3 2.37zm23.27-41.91A11.44 11.44 0 0 0 495 92a20.09 20.09 0 0 0-5 4.51v22.67a11.63 11.63 0 0 0 4.51 3.58 13.39 13.39 0 0 0 5.15 1 12.18 12.18 0 0 0 5.05-1 9.73 9.73 0 0 0 3.83-3.16 15.61 15.61 0 0 0 2.41-5.47 32.88 32.88 0 0 0 .84-8q0-8.33-2.76-12a9.3 9.3 0 0 0-7.89-3.7zm-40.22 41.91a5.62 5.62 0 0 1-2.66-.52 3.56 3.56 0 0 1-1.48-2.1l-1.09-3.59a44.49 44.49 0 0 1-3.74 3 22.35 22.35 0 0 1-3.8 2.19 19.15 19.15 0 0 1-4.21 1.33 25.35 25.35 0 0 1-5 .44 19.18 19.18 0 0 1-5.91-.86 13 13 0 0 1-4.69-2.59 11.66 11.66 0 0 1-3.05-4.28 15.11 15.11 0 0 1-1.09-6 11.67 11.67 0 0 1 1.51-5.64 14.08 14.08 0 0 1 5-5 31.67 31.67 0 0 1 9.32-3.72 65.59 65.59 0 0 1 14.49-1.68v-3c0-3.38-.72-5.89-2.17-7.51a7.93 7.93 0 0 0-6.26-2.45 15.18 15.18 0 0 0-4.91.69 20.59 20.59 0 0 0-3.42 1.56l-2.69 1.55a5.31 5.31 0 0 1-2.69.69 3.51 3.51 0 0 1-2.16-.66 5.55 5.55 0 0 1-1.43-1.56l-2.17-3.89a30 30 0 0 1 21-8 20.46 20.46 0 0 1 7.93 1.46 16.67 16.67 0 0 1 5.92 4 17.29 17.29 0 0 1 3.67 6.19 23.64 23.64 0 0 1 1.26 7.88v32zm-18.19-7.6a14.47 14.47 0 0 0 6.48-1.35 19.24 19.24 0 0 0 5.35-4.12v-8.53a66.38 66.38 0 0 0-8.9.92 23.42 23.42 0 0 0-5.74 1.7 7.6 7.6 0 0 0-3.11 2.41 5.29 5.29 0 0 0-.93 3c0 2.14.63 3.66 1.89 4.58a8.25 8.25 0 0 0 4.96 1.39zm-27.06-65.66v73.26h-12.18V59.08zm-66.41 73.26V82.4h5.28a2.17 2.17 0 0 1 2.32 1.82l.69 5.43a28 28 0 0 1 7.29-5.82 19.06 19.06 0 0 1 9.32-2.22 17.92 17.92 0 0 1 7.22 1.39 13.93 13.93 0 0 1 5.23 3.84 17.24 17.24 0 0 1 3.18 6 26.18 26.18 0 0 1 1.08 7.74v31.8h-8.82v-31.8c0-3.78-.87-6.71-2.59-8.8s-4.35-3.13-7.86-3.13a15 15 0 0 0-7.33 1.87 23.32 23.32 0 0 0-6.18 5.08v36.78zm-31.59-50.73a22.47 22.47 0 0 1 8.3 1.5 18.91 18.91 0 0 1 6.61 4.34 20 20 0 0 1 4.36 7 26.71 26.71 0 0 1 1.58 9.49 5.65 5.65 0 0 1-.45 2.76 1.83 1.83 0 0 1-1.67.69H303a27.29 27.29 0 0 0 1.28 8.23 16.82 16.82 0 0 0 3.25 5.85 13.1 13.1 0 0 0 4.93 3.5 17 17 0 0 0 6.41 1.16 18.73 18.73 0 0 0 5.69-.77 27.11 27.11 0 0 0 4.12-1.65 30.54 30.54 0 0 0 2.88-1.65 3.83 3.83 0 0 1 2-.77 1.92 1.92 0 0 1 1.67.84l2.47 3.21a16.73 16.73 0 0 1-3.9 3.42 24 24 0 0 1-4.85 2.39 30.3 30.3 0 0 1-5.35 1.41 32.86 32.86 0 0 1-5.47.47 25.54 25.54 0 0 1-9.54-1.75 21 21 0 0 1-7.54-5.13 23.63 23.63 0 0 1-5-8.36 34 34 0 0 1-1.77-11.43A29 29 0 0 1 296 96.6a23.1 23.1 0 0 1 4.61-7.87 21.15 21.15 0 0 1 7.35-5.22 24 24 0 0 1 9.71-1.9zm.19 6.46q-6.36 0-10 3.67t-4.54 10.18h27.31a17.39 17.39 0 0 0-.86-5.59 12.59 12.59 0 0 0-2.52-4.39 11.23 11.23 0 0 0-4-2.86 13.65 13.65 0 0 0-5.39-1.01zm-59.1-28.35v42.74H261a4.47 4.47 0 0 0 1.66-.27 4 4 0 0 0 1.4-1.11l15.78-16.91a6 6 0 0 1 1.45-1.3 3.91 3.91 0 0 1 2.05-.47h7.93L272.9 102a11 11 0 0 1-2.85 2.61 9.51 9.51 0 0 1 1.6 1.36 12.42 12.42 0 0 1 1.35 1.75l19.52 24.65h-7.83a4.78 4.78 0 0 1-1.95-.37 3.32 3.32 0 0 1-1.41-1.36l-16.41-20.46a3.82 3.82 0 0 0-1.46-1.35 5.48 5.48 0 0 0-2.19-.32h-2.51v23.86h-8.83V59.72zm-43.68 21.89a25.37 25.37 0 0 1 9.86 1.83 21 21 0 0 1 7.49 5.17 22.63 22.63 0 0 1 4.76 8.11 35.1 35.1 0 0 1 0 21.27 22.63 22.63 0 0 1-4.76 8.09 20.86 20.86 0 0 1-7.49 5.15 25.74 25.74 0 0 1-9.86 1.8 26.07 26.07 0 0 1-9.93-1.8 20.89 20.89 0 0 1-7.52-5.15 22.93 22.93 0 0 1-4.76-8.09 35.1 35.1 0 0 1 0-21.27 22.93 22.93 0 0 1 4.76-8.11 21.07 21.07 0 0 1 7.52-5.17 25.69 25.69 0 0 1 9.93-1.83zm0 44.56q7.39 0 11-5t3.65-13.83q0-8.91-3.65-13.9t-11-5a15.56 15.56 0 0 0-6.53 1.28 12.14 12.14 0 0 0-4.63 3.7 16.16 16.16 0 0 0-2.76 5.94 31.71 31.71 0 0 0-.92 8q0 8.88 3.68 13.83c2.44 3.33 6.17 4.98 11.16 4.98zm-41.06 7q-5.91 0-9.09-3.3t-3.18-9.51V89.75h-6a2 2 0 0 1-1.33-.47 1.84 1.84 0 0 1-.54-1.46v-3.5l8.18-1 2-15.43a2.11 2.11 0 0 1 .67-1.21 1.93 1.93 0 0 1 1.35-.47h4.44v17.18H185v6.36h-14.48v30a6.37 6.37 0 0 0 1.53 4.68 5.33 5.33 0 0 0 3.94 1.53 7.1 7.1 0 0 0 2.39-.37 9.88 9.88 0 0 0 1.75-.82c.5-.29.91-.56 1.26-.81a1.64 1.64 0 0 1 .91-.37 1.51 1.51 0 0 1 1.23.84l2.57 4.19a16.52 16.52 0 0 1-5.47 3.33 18.72 18.72 0 0 1-6.63 1.17z" class="cls-1"/>
  <path d="M108.81 39.92L65.85 51l35.28 20.8a12.47 12.47 0 0 1 4.4 17.07l-32.25 54.72a19.94 19.94 0 0 0 7.42-.48l51.3-13.26a19.92 19.92 0 0 0 14.31-24.28l-13.22-51.34a19.93 19.93 0 0 0-24.28-14.31z" class="cls-2"/>
  <path d="M89.31 76.86L52.56 55.2a19.9 19.9 0 0 0-9.4 22.26l13.26 51.34a19.83 19.83 0 0 0 7.18 10.82l29.15-49.45a9.71 9.71 0 0 0-3.44-13.31z" class="cls-1"/>
</svg>
